<svg width="22" height="22" viewBox="0 0 22 22" fill="none" xmlns="http://www.w3.org/2000/svg">
<path d="M22 10.9998C21.9998 13.5445 21.1172 16.0104 19.5026 17.9773C17.888 19.9443 15.6413 21.2906 13.1453 21.7869C10.6492 22.2831 8.05833 21.8987 5.81401 20.699C3.56969 19.4993 1.81081 17.5586 0.837068 15.2076C-0.136677 12.8565 -0.265041 10.2406 0.473847 7.80557C1.21274 5.37052 2.77316 3.26697 4.88924 1.85334C7.00533 0.439718 9.54614 -0.196519 12.0788 0.0530384C14.6114 0.302596 16.9791 1.42251 18.7786 3.22195C19.8015 4.24225 20.6127 5.45464 21.1656 6.78943C21.7184 8.12422 22.002 9.5551 22 10.9998Z" fill="white"/>
<path d="M20.3501 11.0003C20.35 13.1632 19.5998 15.2592 18.2274 16.9311C16.855 18.603 14.9452 19.7474 12.8236 20.1692C10.702 20.5911 8.49973 20.2643 6.59206 19.2445C4.68438 18.2248 3.18934 16.5752 2.36165 14.5768C1.53397 12.5784 1.42486 10.3549 2.05292 8.28513C2.68097 6.21533 4.00733 4.42731 5.806 3.22573C7.60467 2.02415 9.76437 1.48335 11.9171 1.69547C14.0698 1.9076 16.0824 2.85952 17.6119 4.38905C18.4814 5.25631 19.1709 6.28684 19.6409 7.42142C20.1108 8.55599 20.3518 9.77223 20.3501 11.0003Z" fill="white"/>
<path d="M7.58999 10.9862C7.58576 10.8843 7.60274 10.7827 7.63983 10.6877C7.67692 10.5927 7.73333 10.5064 7.80548 10.4343C7.87764 10.3623 7.96397 10.3059 8.05901 10.2689C8.15405 10.232 8.25573 10.2151 8.35763 10.2194C8.50927 10.2196 8.65745 10.2647 8.78346 10.349C8.90946 10.4334 9.00763 10.5532 9.06555 10.6933C9.12347 10.8334 9.13855 10.9876 9.10887 11.1363C9.07919 11.285 9.00609 11.4215 8.89882 11.5287C8.79154 11.6358 8.6549 11.7088 8.50616 11.7383C8.35743 11.7678 8.20328 11.7526 8.0632 11.6945C7.92312 11.6365 7.8034 11.5382 7.71917 11.4121C7.63494 11.286 7.58999 11.1378 7.58999 10.9862Z" fill="black"/>
<path d="M10.2387 10.9862C10.2344 10.8843 10.2514 10.7827 10.2885 10.6877C10.3256 10.5927 10.382 10.5064 10.4542 10.4343C10.5263 10.3623 10.6126 10.3059 10.7077 10.2689C10.8027 10.232 10.9044 10.2151 11.0063 10.2194C11.1579 10.2196 11.3061 10.2647 11.4321 10.349C11.5581 10.4334 11.6563 10.5532 11.7142 10.6933C11.7722 10.8334 11.7872 10.9876 11.7576 11.1363C11.7279 11.285 11.6548 11.4215 11.5475 11.5287C11.4402 11.6358 11.3036 11.7088 11.1548 11.7383C11.0061 11.7678 10.852 11.7526 10.7119 11.6945C10.5718 11.6365 10.4521 11.5382 10.3679 11.4121C10.2836 11.286 10.2387 11.1378 10.2387 10.9862Z" fill="black"/>
<path d="M12.8856 10.9862C12.8814 10.8843 12.8984 10.7827 12.9355 10.6877C12.9726 10.5927 13.029 10.5064 13.1011 10.4343C13.1733 10.3623 13.2596 10.3059 13.3547 10.2689C13.4497 10.232 13.5514 10.2151 13.6533 10.2194C13.8049 10.2196 13.9531 10.2647 14.0791 10.349C14.2051 10.4334 14.3033 10.5532 14.3612 10.6933C14.4191 10.8334 14.4342 10.9876 14.4045 11.1363C14.3748 11.285 14.3017 11.4215 14.1945 11.5287C14.0872 11.6358 13.9506 11.7088 13.8018 11.7383C13.6531 11.7678 13.4989 11.7526 13.3589 11.6945C13.2188 11.6365 13.0991 11.5382 13.0148 11.4121C12.9306 11.286 12.8856 11.1378 12.8856 10.9862Z" fill="black"/>
<path d="M4.41492 11.7004V10.3271C4.65011 10.3268 4.88376 10.2892 5.10713 10.2155C5.25237 10.1347 5.37191 10.0147 5.45206 9.86907C5.55783 9.68087 5.62564 9.47373 5.65163 9.25941C5.68739 8.94229 5.70183 8.62313 5.69484 8.30407C5.6786 7.78628 5.71096 7.2681 5.79149 6.75635C5.84073 6.49281 5.96203 6.24807 6.14192 6.04927C6.3075 5.84605 6.52862 5.69537 6.77834 5.61559C7.11659 5.53363 7.46458 5.49899 7.81234 5.51267H8.09756V6.64165C7.83952 6.62558 7.58055 6.6497 7.32992 6.71314C7.22381 6.75467 7.13528 6.83154 7.07927 6.93076C7.01846 7.17228 6.99201 7.42116 7.0007 7.67006C7.0007 7.91046 6.98446 8.3664 6.95199 9.03786C6.94474 9.34871 6.89774 9.65736 6.81213 9.95628C6.74974 10.1648 6.65222 10.3612 6.52377 10.5369C6.37066 10.7208 6.18989 10.8798 5.98792 11.0083C6.1875 11.127 6.36377 11.2812 6.50806 11.4631C6.64998 11.6512 6.75502 11.8645 6.81763 12.0917C6.90082 12.4173 6.94772 12.7511 6.95749 13.0871C6.98263 13.7203 6.9952 14.1246 6.9952 14.3001C6.98586 14.5472 7.01501 14.7942 7.08163 15.0323C7.14197 15.1341 7.23381 15.2136 7.34327 15.2586C7.58938 15.3266 7.84509 15.3532 8.09991 15.3372V16.5046H7.8147C7.47019 16.5126 7.12685 16.4616 6.79956 16.3538C6.54974 16.2788 6.32385 16.1399 6.14427 15.9507C5.96248 15.7522 5.83856 15.5077 5.78599 15.2437C5.71254 14.8062 5.68176 14.3625 5.69406 13.9191C5.71272 13.4614 5.68376 13.003 5.60763 12.5513C5.55963 12.3008 5.43433 12.0716 5.24934 11.896C4.99321 11.7587 4.70541 11.6912 4.41492 11.7004Z" fill="black"/>
<path d="M16.7238 11.8976C16.5388 12.0732 16.4135 12.3024 16.3655 12.5528C16.2894 13.0045 16.2604 13.4629 16.2791 13.9206C16.2907 14.3631 16.2593 14.8057 16.1856 15.2421C16.133 15.5061 16.0091 15.7506 15.8273 15.9492C15.6487 16.1405 15.423 16.2816 15.1728 16.3585C14.8455 16.4663 14.5022 16.5174 14.1576 16.5093H13.8724V15.3442C14.1273 15.3602 14.383 15.3337 14.6291 15.2657C14.7385 15.2206 14.8304 15.1412 14.8907 15.0394C14.9573 14.8013 14.9865 14.5543 14.9772 14.3072C14.9772 14.1317 14.9897 13.7274 15.0149 13.0941C15.0252 12.7584 15.0726 12.4248 15.1563 12.0995C15.2189 11.8724 15.3239 11.6591 15.4659 11.471C15.6102 11.289 15.7864 11.1349 15.986 11.0161C15.784 10.8877 15.6033 10.7287 15.4501 10.5447C15.3217 10.369 15.2242 10.1727 15.1618 9.96414C15.0762 9.66522 15.0292 9.35657 15.0219 9.04572C14.9895 8.37425 14.9732 7.91832 14.9732 7.67791C14.9819 7.42901 14.9555 7.18013 14.8947 6.93862C14.8386 6.8394 14.7501 6.76253 14.644 6.721C14.3934 6.65756 14.1344 6.63344 13.8764 6.6495V5.51267H14.1616C14.5093 5.49899 14.8573 5.53363 15.1956 5.61559C15.4453 5.69537 15.6664 5.84605 15.832 6.04927C16.0119 6.24807 16.1332 6.49281 16.1824 6.75635C16.263 7.2681 16.2953 7.78628 16.2791 8.30407C16.2721 8.62313 16.2865 8.94229 16.3223 9.25941C16.3483 9.47373 16.4161 9.68087 16.5219 9.86907C16.602 10.0147 16.7215 10.1347 16.8668 10.2155C17.0906 10.2899 17.3248 10.3281 17.5606 10.3287V11.6988C17.269 11.6902 16.9803 11.7588 16.7238 11.8976Z" fill="black"/>
</svg>
